<svg xmlns="http://www.w3.org/2000/svg" width="64" height="64"><rect width="64" height="64" fill="#f2f2f2" rx="14.859" ry="14.859" style="fill:#b6a98b;fill-opacity:1;stroke-width:1.14281"/><rect width="57.141" height="57.141" x="3.428" y="3.464" fill="#8e74dc" rx="11.428" ry="11.428" style="fill:#202025;fill-opacity:1;stroke-width:1.14281"/><rect width="38.856" height="38.856" x="12.571" y="12.606" fill="#f2f2f2" rx="3.428" ry="3.428" style="fill:#e3e4e3;fill-opacity:1;stroke-width:1.14281"/><path fill="#9aa0aa" d="M34.284 43.462c-.633 0-1.142.383-1.142.858v2.57h1.142v-2.285h1.143v2.286h1.143v-2.286h1.143v2.286h1.143V44.32c0-.475-.51-.858-1.143-.858zm9.143 0c-.633 0-1.143.383-1.143.858v1.714c0 .474.51.857 1.143.857h3.428c.634 0 1.143-.383 1.143-.857V44.32c0-.475-.51-.858-1.143-.858zm-2.857 1.143a.571.571 0 1 0 0 1.143.571.571 0 1 0 0-1.143m2.857 0h3.428v1.143h-3.428z" style="fill:#525252;fill-opacity:1;stroke-width:1.14281"/><path fill="#333" d="M20.57 12.606v5.714A3.42 3.42 0 0 0 24 21.75h15.999a3.42 3.42 0 0 0 3.428-3.429v-5.714z" style="fill:#0d0d0c;fill-opacity:1;stroke-width:1.14281"/><path fill="#fbe604" d="M25.142 17.178v1.142h4.571v-1.142zm9.142 0v1.142h4.572v-1.142z" style="fill:#f4de72;fill-opacity:1;stroke-width:1.14281"/><path d="M23.803 34.903h-1.911l-4.13-3.911h-.046l.086.469.023 3.442H16v-5.795h1.914l4.125 3.91h.044l-.086-.476-.027-3.434h1.828zm8.084 0H25.32v-5.795h6.526v1.21H27.2v1.063h4.26v1.211H27.2v1.103h4.69zm.544-5.795h2.235l1.753 2.073 1.758-2.073H40.4l-2.705 2.86 2.948 2.938h-2.22l-2.008-2.125-1.993 2.125h-2.228l2.944-2.941zm15.565 1.21h-2.784v4.584h-1.91V30.32h-2.783V29.11h7.48z" aria-label="NEXT" style="font-weight:700;font-family:&quot;FONTSPRING DEMO - Heading Pro Ultra Wide ExBold&quot;;-inkscape-font-specification:&quot;FONTSPRING DEMO - Heading Pro Ultra Wide ExBold Bold&quot;;fill:#ac9250;fill-opacity:1;stroke-width:.0529734"/></svg>